<svg aria-hidden="true" style="position: absolute; width: 0; height: 0; overflow: hidden;" version="1.1" xmlns="http://www.w3.org/2000/svg" xmlns:xlink="http://www.w3.org/1999/xlink">
<defs>
<symbol id="icon-instagram-square-brands" viewBox="0 0 28 32">
<path d="M14 12.666c-1.841 0.001-3.332 1.493-3.332 3.334s1.493 3.334 3.334 3.334 3.334-1.493 3.334-3.334v0c-0.001-1.841-1.494-3.333-3.335-3.334h-0zM21.794 10.104c-0.351-0.872-1.029-1.55-1.878-1.893l-0.023-0.008c-1.313-0.518-4.438-0.402-5.894-0.402s-4.578-0.121-5.894 0.402c-0.872 0.351-1.55 1.029-1.893 1.878l-0.008 0.023c-0.518 1.313-0.402 4.441-0.402 5.896s-0.116 4.579 0.404 5.896c0.351 0.872 1.029 1.55 1.878 1.893l0.023 0.008c1.313 0.518 4.438 0.402 5.894 0.402s4.577 0.121 5.894-0.402c0.872-0.351 1.55-1.029 1.893-1.878l0.008-0.023c0.522-1.313 0.402-4.441 0.402-5.896s0.12-4.579-0.402-5.896zM14 21.125c-2.83 0-5.125-2.295-5.125-5.125s2.295-5.125 5.125-5.125c2.83 0 5.125 2.295 5.125 5.125v0c0 0.002 0 0.004 0 0.006 0 2.827-2.292 5.119-5.119 5.119-0.002 0-0.004 0-0.007 0h0zM19.336 11.856c-0 0-0 0-0.001 0-0.661 0-1.196-0.536-1.196-1.196s0.536-1.196 1.196-1.196c0.661 0 1.196 0.536 1.196 1.196v0c0 0.002 0 0.003 0 0.005 0 0.659-0.534 1.193-1.193 1.194h-0zM25 2h-22c-1.657 0-3 1.343-3 3v0 22c0 1.657 1.343 3 3 3v0h22c1.657 0 3-1.343 3-3v0-22c0-1.657-1.343-3-3-3v0zM23.93 20.125c-0.081 1.602-0.446 3.021-1.616 4.188s-2.587 1.539-4.188 1.616c-1.651 0.093-6.599 0.093-8.25 0-1.602-0.081-3.016-0.447-4.188-1.616s-1.539-2.589-1.616-4.188c-0.093-1.651-0.093-6.601 0-8.25 0.081-1.602 0.442-3.021 1.616-4.188s2.592-1.535 4.188-1.611c1.651-0.093 6.599-0.093 8.25 0 1.602 0.081 3.021 0.447 4.188 1.616s1.539 2.589 1.616 4.191c0.093 1.645 0.093 6.59 0 8.242z"></path>
</symbol>
<symbol id="icon-instagram-brands" viewBox="0 0 28 32">
<path d="M14.006 8.813c-3.975 0-7.181 3.206-7.181 7.181s3.206 7.181 7.181 7.181 7.181-3.206 7.181-7.181-3.206-7.181-7.181-7.181zM14.006 20.663c-2.569 0-4.669-2.094-4.669-4.669s2.094-4.669 4.669-4.669 4.669 2.094 4.669 4.669-2.1 4.669-4.669 4.669zM23.156 8.519c0 0.931-0.75 1.675-1.675 1.675-0.931 0-1.675-0.75-1.675-1.675s0.75-1.675 1.675-1.675 1.675 0.75 1.675 1.675zM27.913 10.219c-0.106-2.244-0.619-4.231-2.262-5.869-1.637-1.638-3.625-2.15-5.869-2.263-2.313-0.131-9.244-0.131-11.556 0-2.237 0.106-4.225 0.619-5.869 2.256s-2.15 3.625-2.263 5.869c-0.131 2.313-0.131 9.244 0 11.556 0.106 2.244 0.619 4.231 2.263 5.869s3.625 2.15 5.869 2.262c2.313 0.131 9.244 0.131 11.556 0 2.244-0.106 4.231-0.619 5.869-2.262 1.637-1.637 2.15-3.625 2.262-5.869 0.131-2.313 0.131-9.238 0-11.55zM24.925 24.25c-0.488 1.225-1.431 2.169-2.663 2.663-1.844 0.731-6.219 0.563-8.256 0.563s-6.419 0.163-8.256-0.563c-1.225-0.488-2.169-1.431-2.663-2.663-0.731-1.844-0.563-6.219-0.563-8.256s-0.163-6.419 0.563-8.256c0.487-1.225 1.431-2.169 2.663-2.662 1.844-0.731 6.219-0.563 8.256-0.563s6.419-0.162 8.256 0.563c1.225 0.487 2.169 1.431 2.663 2.662 0.731 1.844 0.563 6.219 0.563 8.256s0.169 6.419-0.563 8.256z"></path>
</symbol>
<symbol id="icon-linkedin-brands" viewBox="0 0 28 32">
<path d="M26 2h-24.006c-1.1 0-1.994 0.906-1.994 2.019v23.962c0 1.113 0.894 2.019 1.994 2.019h24.006c1.1 0 2-0.906 2-2.019v-23.962c0-1.112-0.9-2.019-2-2.019zM8.463 26h-4.15v-13.363h4.156v13.363zM6.388 10.813c-1.331 0-2.406-1.081-2.406-2.406s1.075-2.406 2.406-2.406c1.325 0 2.406 1.081 2.406 2.406 0 1.331-1.075 2.406-2.406 2.406zM24.019 26h-4.15v-6.5c0-1.55-0.031-3.544-2.156-3.544-2.162 0-2.494 1.688-2.494 3.431v6.613h-4.15v-13.363h3.981v1.825h0.056c0.556-1.050 1.912-2.156 3.931-2.156 4.2 0 4.981 2.769 4.981 6.369v7.325z"></path>
</symbol>
<symbol id="icon-linkedin-in-brands" viewBox="0 0 28 32">
<path d="M6.268 28h-5.805v-18.694h5.805zM3.362 6.756c-1.856 0-3.362-1.537-3.362-3.394s1.505-3.362 3.362-3.362 3.362 1.505 3.362 3.362v0c0 1.856-1.506 3.394-3.362 3.394zM27.994 28h-5.793v-9.1c0-2.169-0.044-4.95-3.018-4.95-3.018 0-3.481 2.356-3.481 4.794v9.256h-5.799v-18.694h5.568v2.55h0.081c0.775-1.469 2.668-3.019 5.492-3.019 5.875 0 6.955 3.869 6.955 8.894v10.269z"></path>
</symbol>
<symbol id="icon-facebook-f-brands" viewBox="0 0 20 32">
<path d="M17.446 18l0.889-5.791h-5.557v-3.758c0-1.584 0.776-3.129 3.265-3.129h2.526v-4.931s-2.293-0.391-4.484-0.391c-4.576 0-7.567 2.774-7.567 7.795v4.414h-5.087v5.791h5.087v14h6.261v-14z"></path>
</symbol>
<symbol id="icon-twitter-square-brands" viewBox="0 0 28 32">
<path d="M25 2h-22c-1.656 0-3 1.344-3 3v22c0 1.656 1.344 3 3 3h22c1.656 0 3-1.344 3-3v-22c0-1.656-1.344-3-3-3zM21.944 11.925c0.012 0.175 0.012 0.356 0.012 0.531 0 5.419-4.125 11.662-11.662 11.662-2.325 0-4.481-0.675-6.294-1.837 0.331 0.038 0.65 0.050 0.987 0.050 1.919 0 3.681-0.65 5.088-1.75-1.8-0.038-3.313-1.219-3.831-2.844 0.631 0.094 1.2 0.094 1.85-0.075-1.875-0.381-3.281-2.031-3.281-4.025v-0.050c0.544 0.306 1.181 0.494 1.85 0.519-1.107-0.744-1.825-1.991-1.825-3.406 0-0.002 0-0.005 0-0.007v0c0-0.762 0.2-1.463 0.556-2.069 2.019 2.487 5.050 4.112 8.45 4.287-0.581-2.781 1.5-5.037 4-5.037 1.181 0 2.244 0.494 2.994 1.294 0.925-0.175 1.813-0.519 2.6-0.988-0.306 0.95-0.95 1.75-1.8 2.256 0.825-0.088 1.625-0.319 2.363-0.637-0.556 0.819-1.256 1.544-2.056 2.125z"></path>
</symbol>
<symbol id="icon-facebook-square-brands" viewBox="0 0 28 32">
<path d="M25 2h-22c-1.657 0-3 1.343-3 3v0 22c0 1.657 1.343 3 3 3v0h8.578v-9.519h-3.938v-4.481h3.938v-3.415c0-3.884 2.313-6.030 5.854-6.030 1.696 0 3.47 0.303 3.47 0.303v3.813h-1.954c-1.926 0-2.526 1.195-2.526 2.421v2.909h4.299l-0.688 4.481h-3.611v9.519h8.578c1.657 0 3-1.343 3-3v0-22c0-1.657-1.343-3-3-3v0z"></path>
</symbol>
<symbol id="icon-youtube-brands" viewBox="0 0 36 32">
<path d="M34.353 7.755c-0.393-1.478-1.549-2.642-3.018-3.037-2.662-0.718-13.336-0.718-13.336-0.718s-10.674 0-13.336 0.718c-1.469 0.395-2.625 1.559-3.018 3.037-0.713 2.679-0.713 8.269-0.713 8.269s0 5.59 0.713 8.269c0.393 1.478 1.549 2.594 3.018 2.989 2.662 0.718 13.336 0.718 13.336 0.718s10.674 0 13.336-0.718c1.469-0.395 2.625-1.511 3.018-2.989 0.713-2.679 0.713-8.269 0.713-8.269s0-5.59-0.713-8.269zM14.509 21.099v-10.15l8.921 5.075-8.921 5.075z"></path>
</symbol>
<symbol id="icon-twitter-brands" viewBox="0 0 32 32">
<path d="M28.711 9.482c0.020 0.284 0.020 0.569 0.020 0.853 0 8.67-6.599 18.66-18.66 18.66-3.716 0-7.168-1.076-10.071-2.944 0.528 0.061 1.036 0.081 1.584 0.081 3.066 0 5.888-1.035 8.142-2.802-2.883-0.061-5.3-1.949-6.132-4.548 0.406 0.061 0.812 0.102 1.239 0.102 0.589 0 1.178-0.081 1.726-0.223-3.005-0.609-5.259-3.249-5.259-6.437v-0.081c0.873 0.487 1.888 0.792 2.964 0.832-1.766-1.178-2.924-3.188-2.924-5.462 0-1.218 0.325-2.335 0.893-3.31 3.228 3.98 8.081 6.579 13.523 6.863-0.101-0.487-0.162-0.995-0.162-1.502 0-3.614 2.924-6.558 6.558-6.558 1.888 0 3.594 0.792 4.792 2.071 1.482-0.284 2.904-0.832 4.162-1.584-0.487 1.523-1.523 2.802-2.883 3.614 1.32-0.142 2.599-0.508 3.777-1.015-0.893 1.299-2.010 2.457-3.289 3.391z"></path>
</symbol>
<symbol id="icon-link-solid" viewBox="0 0 40 32">
<path d="M10.781 8.194c3.475-3.474 9.25-3.474 12.725 0 3.125 3.125 3.587 8.106 1.019 11.7l-0.069 0.1c-0.644 0.894-1.894 1.106-2.788 0.462-0.9-0.644-1.113-1.894-0.469-2.788l0.069-0.1c1.431-2.006 1.206-4.75-0.538-6.494-1.962-1.963-5.156-1.963-7.125 0l-7.013 7.019c-1.969 1.913-1.969 5.156 0 7.125 1.737 1.744 4.487 1.969 6.487 0.538l0.1-0.125c0.9-0.587 2.15-0.381 2.787 0.519 0.644 0.9 0.438 2.15-0.463 2.794l-0.1 0.069c-3.65 2.569-8.519 2.156-11.643-0.962-3.529-3.531-3.529-9.256 0-12.781l7.018-7.075zM29.219 23.75c-3.531 3.531-9.25 3.531-12.781 0-3.125-3.125-3.531-8.050-0.963-11.644l0.069-0.1c0.587-0.894 1.837-1.106 2.788-0.463 0.9 0.588 1.113 1.838 0.469 2.787l-0.069 0.1c-1.431 1.95-1.206 4.75 0.538 6.494 1.962 1.962 5.156 1.962 7.125 0l7.012-7.019c1.969-1.969 1.969-5.213 0-7.125-1.738-1.742-4.488-1.969-6.488-0.537l-0.1 0.069c-0.9 0.644-2.15 0.381-2.788-0.464-0.644-0.899-0.438-2.148 0.462-2.79l0.1-0.070c3.594-2.568 8.519-2.161 11.644 0.964 3.531 3.529 3.531 9.254 0 12.779l-7.019 7.019z"></path>
</symbol>
</defs>
</svg>
